<svg width="325" height="325" viewBox="0 0 325 325" fill="none" xmlns="http://www.w3.org/2000/svg">
<circle cx="32.5" cy="32.5" r="31.5" stroke="white" stroke-opacity="0.28" stroke-width="2"/>
<circle cx="32.5" cy="97.5" r="31.5" stroke="white" stroke-opacity="0.28" stroke-width="2"/>
<circle cx="32.5" cy="97.5" r="8.5" fill="white"/>
<circle cx="32.5" cy="97.5" r="8" stroke="white" stroke-opacity="0.28"/>
<circle cx="32.5" cy="162.5" r="31.5" stroke="white" stroke-opacity="0.28" stroke-width="2"/>
<circle cx="32.5" cy="227.5" r="31.5" stroke="white" stroke-opacity="0.28" stroke-width="2"/>
<circle cx="32.5" cy="292.5" r="31.5" stroke="white" stroke-opacity="0.28" stroke-width="2"/>
<circle cx="97.5" cy="32.5" r="31.5" stroke="white" stroke-opacity="0.28" stroke-width="2"/>
<circle cx="97.5" cy="32.5" r="8.5" fill="white"/>
<circle cx="97.5" cy="32.5" r="8" stroke="white" stroke-opacity="0.28"/>
<circle cx="97.5" cy="97.5" r="31.5" stroke="white" stroke-opacity="0.28" stroke-width="2"/>
<circle cx="97.5" cy="162.5" r="31.5" stroke="white" stroke-opacity="0.28" stroke-width="2"/>
<circle cx="97.5" cy="227.5" r="31.5" stroke="white" stroke-opacity="0.28" stroke-width="2"/>
<circle cx="97.5" cy="292.5" r="31.5" stroke="white" stroke-opacity="0.28" stroke-width="2"/>
<circle cx="162.5" cy="32.5" r="31.5" stroke="white" stroke-opacity="0.28" stroke-width="2"/>
<circle cx="162.5" cy="97.5" r="31.5" stroke="white" stroke-opacity="0.28" stroke-width="2"/>
<circle cx="162.5" cy="162.5" r="31.5" stroke="white" stroke-opacity="0.28" stroke-width="2"/>
<circle cx="162.5" cy="227.5" r="31.5" stroke="white" stroke-opacity="0.28" stroke-width="2"/>
<circle cx="162.5" cy="292.5" r="31.5" stroke="white" stroke-opacity="0.28" stroke-width="2"/>
<circle cx="227.5" cy="32.5" r="31.5" stroke="white" stroke-opacity="0.28" stroke-width="2"/>
<circle cx="227.5" cy="97.5" r="31.5" stroke="white" stroke-opacity="0.28" stroke-width="2"/>
<circle cx="227.5" cy="162.5" r="31.5" stroke="white" stroke-opacity="0.28" stroke-width="2"/>
<circle cx="227.5" cy="162.5" r="8.5" fill="white"/>
<circle cx="227.5" cy="162.5" r="8" stroke="white" stroke-opacity="0.28"/>
<circle cx="162.5" cy="227.5" r="8.5" fill="white"/>
<circle cx="162.5" cy="227.5" r="8" stroke="white" stroke-opacity="0.28"/>
<circle cx="227.5" cy="227.5" r="31.5" stroke="white" stroke-opacity="0.28" stroke-width="2"/>
<circle cx="227.5" cy="292.5" r="31.5" stroke="white" stroke-opacity="0.28" stroke-width="2"/>
<circle cx="228.5" cy="292.5" r="8.5" fill="white"/>
<circle cx="228.5" cy="292.5" r="8" stroke="white" stroke-opacity="0.28"/>
<circle cx="292.5" cy="32.5" r="31.5" stroke="white" stroke-opacity="0.28" stroke-width="2"/>
<circle cx="292.5" cy="97.5" r="31.5" stroke="white" stroke-opacity="0.28" stroke-width="2"/>
<circle cx="292.5" cy="162.5" r="31.5" stroke="white" stroke-opacity="0.28" stroke-width="2"/>
<circle cx="292.5" cy="227.5" r="31.5" stroke="white" stroke-opacity="0.28" stroke-width="2"/>
<circle cx="292.5" cy="292.5" r="31.5" stroke="white" stroke-opacity="0.28" stroke-width="2"/>
</svg>
