<svg width="402" height="456" viewBox="0 0 402 456" fill="none" xmlns="http://www.w3.org/2000/svg">
<path fill-rule="evenodd" clip-rule="evenodd" d="M537.069 206.405C477.036 391.931 277.97 493.664 92.4432 433.63C-93.0835 373.597 -194.816 174.531 -134.782 -10.9957C-74.7491 -196.522 124.317 -298.255 309.844 -238.221C495.37 -178.188 597.103 20.8778 537.069 206.405ZM538.972 207.02C478.599 393.598 278.405 495.907 91.8275 435.533C-94.7502 375.16 -197.059 174.966 -136.685 -11.6115C-76.3119 -198.189 123.882 -300.498 310.459 -240.124C497.037 -179.751 599.346 20.4426 538.972 207.02ZM114.178 369.664C264.293 418.238 425.362 335.924 473.936 185.809C522.511 35.695 440.197 -125.374 290.082 -173.949C139.968 -222.523 -21.1014 -140.209 -69.676 9.9053C-118.251 160.02 -35.9363 321.089 114.178 369.664ZM113.562 371.566C264.728 420.481 426.925 337.59 475.839 186.425C524.754 35.2598 441.863 -126.937 290.698 -175.852C139.533 -224.766 -22.6642 -141.876 -71.5789 9.28958C-120.494 160.455 -37.603 322.652 113.562 371.566ZM403.857 164.13C367.444 276.658 246.704 338.362 134.176 301.95C21.6473 265.538 -40.0569 144.798 -3.64458 32.2692C32.7678 -80.2592 153.508 -141.963 266.036 -105.551C378.565 -69.1387 440.269 51.6016 403.857 164.13ZM405.759 164.746C369.007 278.325 247.139 340.605 133.56 303.853C19.9806 267.101 -42.2998 145.233 -5.54744 31.6534C31.205 -81.9258 153.073 -144.206 266.652 -107.454C380.231 -70.7015 442.512 51.1664 405.759 164.746ZM334.469 141.79C310.57 215.646 231.325 256.144 157.469 232.246C83.6136 208.347 43.1153 129.102 67.0137 55.2461C90.9122 -18.6096 170.158 -59.1079 244.013 -35.2094C317.869 -11.3109 358.367 67.9345 334.469 141.79ZM336.372 142.406C312.133 217.312 231.76 258.387 156.853 234.148C81.9469 209.91 40.8723 129.537 65.1109 54.6303C89.3494 -20.2762 169.722 -61.3508 244.629 -37.1122C319.536 -12.8737 360.61 67.4993 336.372 142.406Z" fill="#EA5809" fill-opacity="0.25"/>
<circle cx="168.5" cy="311.5" r="8.5" fill="#EA5809"/>
<circle cx="48.5" cy="338.5" r="8.5" fill="#EA5809"/>
<circle cx="258.5" cy="447.5" r="8.5" fill="#EA5809"/>
<circle cx="301.5" cy="197.5" r="8.5" fill="#EA5809"/>
</svg>
