<svg width="293" height="109" viewBox="0 0 293 109" fill="none" xmlns="http://www.w3.org/2000/svg">
<mask id="path-1-outside-1_3_313" maskUnits="userSpaceOnUse" x="6" y="26" width="228" height="45" fill="black">
<rect fill="white" x="6" y="26" width="228" height="45"/>
<path d="M20.0477 51.06H12.6077V69H7.08773V28.2H20.7677C25.4077 28.2 28.9277 29.2 31.3277 31.2C33.7277 33.2 34.9277 35.94 34.9277 39.42C34.9277 42.34 34.1477 44.74 32.5877 46.62C31.0277 48.46 28.7277 49.68 25.6877 50.28L39.0077 69H32.5877L20.0477 51.06ZM12.6077 46.86H20.7677C26.5277 46.86 29.4077 44.44 29.4077 39.6C29.4077 37.32 28.6677 35.54 27.1877 34.26C25.7077 32.98 23.5677 32.34 20.7677 32.34H12.6077V46.86ZM63.8876 69.96C58.5676 69.96 54.4676 68.48 51.5876 65.52C48.7476 62.56 47.3276 58.64 47.3276 53.76V28.2H52.8476V53.7C52.8476 57.5 53.8076 60.44 55.7276 62.52C57.6476 64.6 60.3676 65.64 63.8876 65.64C67.4076 65.64 70.1076 64.6 71.9876 62.52C73.9076 60.44 74.8676 57.5 74.8676 53.7V28.2H80.3876V53.64C80.3876 58.6 78.9676 62.56 76.1276 65.52C73.2876 68.48 69.2076 69.96 63.8876 69.96ZM126.222 28.2V69L121.422 69.06L98.382 37.02L98.682 51.24V69H93.162V28.2H97.962L121.002 60.3L120.702 44.4V28.2H126.222ZM192.787 28.2L179.527 69.48H174.247L163.387 35.76L152.527 69.48H147.247L134.647 28.2H140.287L150.007 62.82L160.987 28.2H165.847L176.947 62.94L187.147 28.2H192.787ZM222.092 56.34H205.712L201.092 69H195.572L211.412 27.66H216.512L232.412 69H226.772L222.092 56.34ZM220.592 52.2L213.932 34.08L207.272 52.2H220.592Z"/>
</mask>
<path d="M20.0477 51.06H12.6077V69H7.08773V28.2H20.7677C25.4077 28.2 28.9277 29.2 31.3277 31.2C33.7277 33.2 34.9277 35.94 34.9277 39.42C34.9277 42.34 34.1477 44.74 32.5877 46.62C31.0277 48.46 28.7277 49.68 25.6877 50.28L39.0077 69H32.5877L20.0477 51.06ZM12.6077 46.86H20.7677C26.5277 46.86 29.4077 44.44 29.4077 39.6C29.4077 37.32 28.6677 35.54 27.1877 34.26C25.7077 32.98 23.5677 32.34 20.7677 32.34H12.6077V46.86ZM63.8876 69.96C58.5676 69.96 54.4676 68.48 51.5876 65.52C48.7476 62.56 47.3276 58.64 47.3276 53.76V28.2H52.8476V53.7C52.8476 57.5 53.8076 60.44 55.7276 62.52C57.6476 64.6 60.3676 65.64 63.8876 65.64C67.4076 65.64 70.1076 64.6 71.9876 62.52C73.9076 60.44 74.8676 57.5 74.8676 53.7V28.2H80.3876V53.64C80.3876 58.6 78.9676 62.56 76.1276 65.52C73.2876 68.48 69.2076 69.96 63.8876 69.96ZM126.222 28.2V69L121.422 69.06L98.382 37.02L98.682 51.24V69H93.162V28.2H97.962L121.002 60.3L120.702 44.4V28.2H126.222ZM192.787 28.2L179.527 69.48H174.247L163.387 35.76L152.527 69.48H147.247L134.647 28.2H140.287L150.007 62.82L160.987 28.2H165.847L176.947 62.94L187.147 28.2H192.787ZM222.092 56.34H205.712L201.092 69H195.572L211.412 27.66H216.512L232.412 69H226.772L222.092 56.34ZM220.592 52.2L213.932 34.08L207.272 52.2H220.592Z" fill="white"/>
<path d="M20.0477 51.06L20.8674 50.4871L20.5688 50.06H20.0477V51.06ZM12.6077 51.06V50.06H11.6077V51.06H12.6077ZM12.6077 69V70H13.6077V69H12.6077ZM7.08773 69H6.08773V70H7.08773V69ZM7.08773 28.2V27.2H6.08773V28.2H7.08773ZM31.3277 31.2L31.9679 30.4318L31.9679 30.4318L31.3277 31.2ZM32.5877 46.62L33.3505 47.2667L33.3573 47.2586L32.5877 46.62ZM25.6877 50.28L25.4941 49.2989L23.9756 49.5986L24.8729 50.8598L25.6877 50.28ZM39.0077 69V70H40.9466L39.8225 68.4202L39.0077 69ZM32.5877 69L31.7681 69.5729L32.0667 70H32.5877V69ZM12.6077 46.86H11.6077V47.86H12.6077V46.86ZM27.1877 34.26L27.8419 33.5036V33.5036L27.1877 34.26ZM12.6077 32.34V31.34H11.6077V32.34H12.6077ZM20.0477 50.06H12.6077V52.06H20.0477V50.06ZM11.6077 51.06V69H13.6077V51.06H11.6077ZM12.6077 68H7.08773V70H12.6077V68ZM8.08774 69V28.2H6.08773V69H8.08774ZM7.08773 29.2H20.7677V27.2H7.08773V29.2ZM20.7677 29.2C25.2835 29.2 28.5366 30.1758 30.6876 31.9682L31.9679 30.4318C29.3189 28.2242 25.5319 27.2 20.7677 27.2V29.2ZM30.6876 31.9682C32.8318 33.7551 33.9277 36.1986 33.9277 39.42H35.9277C35.9277 35.6814 34.6237 32.6449 31.9679 30.4318L30.6876 31.9682ZM33.9277 39.42C33.9277 42.1543 33.2015 44.3143 31.8182 45.9814L33.3573 47.2586C35.094 45.1657 35.9277 42.5257 35.9277 39.42H33.9277ZM31.825 45.9733C30.4486 47.5967 28.3761 48.7301 25.4941 49.2989L25.8814 51.2611C29.0794 50.6299 31.6068 49.3233 33.3505 47.2667L31.825 45.9733ZM24.8729 50.8598L38.1929 69.5798L39.8225 68.4202L26.5025 49.7002L24.8729 50.8598ZM39.0077 68H32.5877V70H39.0077V68ZM33.4074 68.4271L20.8674 50.4871L19.2281 51.6329L31.7681 69.5729L33.4074 68.4271ZM12.6077 47.86H20.7677V45.86H12.6077V47.86ZM20.7677 47.86C23.7635 47.86 26.1967 47.2343 27.8911 45.8106C29.6187 44.3589 30.4077 42.2242 30.4077 39.6H28.4077C28.4077 41.8158 27.7568 43.3111 26.6044 44.2794C25.4187 45.2757 23.5319 45.86 20.7677 45.86V47.86ZM30.4077 39.6C30.4077 37.0827 29.5787 35.0057 27.8419 33.5036L26.5336 35.0164C27.7568 36.0742 28.4077 37.5573 28.4077 39.6H30.4077ZM27.8419 33.5036C26.1156 32.0106 23.7059 31.34 20.7677 31.34V33.34C23.4295 33.34 25.2999 33.9494 26.5336 35.0164L27.8419 33.5036ZM20.7677 31.34H12.6077V33.34H20.7677V31.34ZM11.6077 32.34V46.86H13.6077V32.34H11.6077ZM51.5876 65.52L50.866 66.2123L50.8709 66.2174L51.5876 65.52ZM47.3276 28.2V27.2H46.3276V28.2H47.3276ZM52.8476 28.2H53.8476V27.2H52.8476V28.2ZM55.7276 62.52L56.4624 61.8417L55.7276 62.52ZM71.9876 62.52L71.2527 61.8417L71.2457 61.8495L71.9876 62.52ZM74.8676 28.2V27.2H73.8676V28.2H74.8676ZM80.3876 28.2H81.3876V27.2H80.3876V28.2ZM76.1276 65.52L75.406 64.8277L76.1276 65.52ZM63.8876 68.96C58.7559 68.96 54.9458 67.5375 52.3043 64.8226L50.8709 66.2174C53.9893 69.4225 58.3793 70.96 63.8876 70.96V68.96ZM52.3092 64.8277C49.681 62.0884 48.3276 58.4341 48.3276 53.76H46.3276C46.3276 58.8459 47.8142 63.0316 50.866 66.2123L52.3092 64.8277ZM48.3276 53.76V28.2H46.3276V53.76H48.3276ZM47.3276 29.2H52.8476V27.2H47.3276V29.2ZM51.8476 28.2V53.7H53.8476V28.2H51.8476ZM51.8476 53.7C51.8476 57.6637 52.8509 60.8779 54.9928 63.1983L56.4624 61.8417C54.7643 60.0021 53.8476 57.3363 53.8476 53.7H51.8476ZM54.9928 63.1983C57.1464 65.5314 60.1613 66.64 63.8876 66.64V64.64C60.5738 64.64 58.1488 63.6686 56.4624 61.8417L54.9928 63.1983ZM63.8876 66.64C67.6129 66.64 70.6135 65.5316 72.7295 63.1905L71.2457 61.8495C69.6017 63.6684 67.2023 64.64 63.8876 64.64V66.64ZM72.7224 63.1983C74.8643 60.8779 75.8676 57.6637 75.8676 53.7H73.8676C73.8676 57.3363 72.9509 60.0021 71.2528 61.8417L72.7224 63.1983ZM75.8676 53.7V28.2H73.8676V53.7H75.8676ZM74.8676 29.2H80.3876V27.2H74.8676V29.2ZM79.3876 28.2V53.64H81.3876V28.2H79.3876ZM79.3876 53.64C79.3876 58.3992 78.0313 62.0915 75.406 64.8277L76.8492 66.2123C79.9039 63.0285 81.3876 58.8008 81.3876 53.64H79.3876ZM75.406 64.8277C72.8062 67.5373 69.0201 68.96 63.8876 68.96V70.96C69.3951 70.96 73.7689 69.4227 76.8492 66.2123L75.406 64.8277ZM126.222 28.2H127.222V27.2H126.222V28.2ZM126.222 69L126.234 69.9999L127.222 69.9876V69H126.222ZM121.422 69.06L120.61 69.6438L120.914 70.0664L121.434 70.0599L121.422 69.06ZM98.382 37.02L99.1938 36.4362L97.3143 33.8224L97.3822 37.0411L98.382 37.02ZM98.682 51.24H99.682V51.2295L99.6817 51.2189L98.682 51.24ZM98.682 69V70H99.682V69H98.682ZM93.162 69H92.162V70H93.162V69ZM93.162 28.2V27.2H92.162V28.2H93.162ZM97.962 28.2L98.7744 27.6169L98.4751 27.2H97.962V28.2ZM121.002 60.3L120.19 60.8831L122.062 63.4924L122.002 60.2811L121.002 60.3ZM120.702 44.4H119.702V44.4094L119.702 44.4189L120.702 44.4ZM120.702 28.2V27.2H119.702V28.2H120.702ZM125.222 28.2V69H127.222V28.2H125.222ZM126.209 68.0001L121.409 68.0601L121.434 70.0599L126.234 69.9999L126.209 68.0001ZM122.234 68.4762L99.1938 36.4362L97.5701 37.6038L120.61 69.6438L122.234 68.4762ZM97.3822 37.0411L97.6822 51.2611L99.6817 51.2189L99.3817 36.9989L97.3822 37.0411ZM97.682 51.24V69H99.682V51.24H97.682ZM98.682 68H93.162V70H98.682V68ZM94.162 69V28.2H92.162V69H94.162ZM93.162 29.2H97.962V27.2H93.162V29.2ZM97.1496 28.7831L120.19 60.8831L121.814 59.7169L98.7744 27.6169L97.1496 28.7831ZM122.002 60.2811L121.702 44.3811L119.702 44.4189L120.002 60.3189L122.002 60.2811ZM121.702 44.4V28.2H119.702V44.4H121.702ZM120.702 29.2H126.222V27.2H120.702V29.2ZM192.787 28.2L193.739 28.5058L194.158 27.2H192.787V28.2ZM179.527 69.48V70.48H180.256L180.479 69.7858L179.527 69.48ZM174.247 69.48L173.295 69.7866L173.518 70.48H174.247V69.48ZM163.387 35.76L164.339 35.4534L163.387 32.498L162.435 35.4534L163.387 35.76ZM152.527 69.48V70.48H153.255L153.479 69.7866L152.527 69.48ZM147.247 69.48L146.29 69.7719L146.506 70.48H147.247V69.48ZM134.647 28.2V27.2H133.296L133.69 28.4919L134.647 28.2ZM140.287 28.2L141.25 27.9297L141.045 27.2H140.287V28.2ZM150.007 62.82L149.044 63.0903L149.948 66.3117L150.96 63.1223L150.007 62.82ZM160.987 28.2V27.2H160.255L160.034 27.8977L160.987 28.2ZM165.847 28.2L166.799 27.8956L166.577 27.2H165.847V28.2ZM176.947 62.94L175.994 63.2444L176.987 66.3521L177.906 63.2217L176.947 62.94ZM187.147 28.2V27.2H186.398L186.187 27.9183L187.147 28.2ZM191.835 27.8942L178.575 69.1742L180.479 69.7858L193.739 28.5058L191.835 27.8942ZM179.527 68.48H174.247V70.48H179.527V68.48ZM175.199 69.1734L164.339 35.4534L162.435 36.0666L173.295 69.7866L175.199 69.1734ZM162.435 35.4534L151.575 69.1734L153.479 69.7866L164.339 36.0666L162.435 35.4534ZM152.527 68.48H147.247V70.48H152.527V68.48ZM148.203 69.1881L135.603 27.9081L133.69 28.4919L146.29 69.7719L148.203 69.1881ZM134.647 29.2H140.287V27.2H134.647V29.2ZM139.324 28.4703L149.044 63.0903L150.97 62.5497L141.25 27.9297L139.324 28.4703ZM150.96 63.1223L161.94 28.5023L160.034 27.8977L149.054 62.5177L150.96 63.1223ZM160.987 29.2H165.847V27.2H160.987V29.2ZM164.894 28.5044L175.994 63.2444L177.899 62.6356L166.799 27.8956L164.894 28.5044ZM177.906 63.2217L188.106 28.4817L186.187 27.9183L175.987 62.6583L177.906 63.2217ZM187.147 29.2H192.787V27.2H187.147V29.2ZM222.092 56.34L223.03 55.9933L222.788 55.34H222.092V56.34ZM205.712 56.34V55.34H205.012L204.772 55.9972L205.712 56.34ZM201.092 69V70H201.791L202.031 69.3428L201.092 69ZM195.572 69L194.638 68.6422L194.118 70H195.572V69ZM211.412 27.66V26.66H210.724L210.478 27.3022L211.412 27.66ZM216.512 27.66L217.445 27.301L217.198 26.66H216.512V27.66ZM232.412 69V70H233.868L233.345 68.641L232.412 69ZM226.772 69L225.834 69.3467L226.075 70H226.772V69ZM220.592 52.2V53.2H222.025L221.53 51.855L220.592 52.2ZM213.932 34.08L214.87 33.735L213.932 31.1813L212.993 33.735L213.932 34.08ZM207.272 52.2L206.333 51.855L205.839 53.2H207.272V52.2ZM222.092 55.34H205.712V57.34H222.092V55.34ZM204.772 55.9972L200.152 68.6572L202.031 69.3428L206.651 56.6828L204.772 55.9972ZM201.092 68H195.572V70H201.092V68ZM196.505 69.3578L212.345 28.0178L210.478 27.3022L194.638 68.6422L196.505 69.3578ZM211.412 28.66H216.512V26.66H211.412V28.66ZM215.578 28.019L231.478 69.359L233.345 68.641L217.445 27.301L215.578 28.019ZM232.412 68H226.772V70H232.412V68ZM227.71 68.6533L223.03 55.9933L221.154 56.6867L225.834 69.3467L227.71 68.6533ZM221.53 51.855L214.87 33.735L212.993 34.425L219.653 52.545L221.53 51.855ZM212.993 33.735L206.333 51.855L208.21 52.545L214.87 34.425L212.993 33.735ZM207.272 53.2H220.592V51.2H207.272V53.2Z" fill="white" mask="url(#path-1-outside-1_3_313)"/>
<line x1="240" y1="32" x2="277" y2="32" stroke="white" stroke-width="6"/>
<line x1="240" y1="49" x2="293" y2="49" stroke="white" stroke-width="6"/>
<line x1="240" y1="66" x2="277" y2="66" stroke="white" stroke-width="6"/>
</svg>
