<svg width="374" height="496" viewBox="0 0 374 496" fill="none" xmlns="http://www.w3.org/2000/svg">
<path fill-rule="evenodd" clip-rule="evenodd" d="M311.418 307.409C278.339 409.637 168.651 465.693 66.4226 432.614C-35.8053 399.535 -91.8614 289.847 -58.7821 187.619C-53.8229 172.293 -47.1418 158.005 -39.0223 144.899C-43.8186 153.853 -47.886 163.358 -51.1235 173.363C-80.3785 263.773 -30.8031 360.779 59.6061 390.034C150.015 419.289 247.022 369.714 276.277 279.305C305.532 188.896 255.957 91.8886 165.548 62.6337C143.821 55.6032 121.712 53.1254 100.255 54.6729C128.257 50.8682 157.529 53.1322 186.213 62.414C288.441 95.4933 344.497 205.181 311.418 307.409ZM59.6609 62.6028C99.2393 48.304 143.692 46.5525 186.829 60.5111C290.108 93.9305 346.74 204.746 313.321 308.025C279.902 411.304 169.086 467.936 65.8069 434.517C-37.472 401.098 -94.1043 290.282 -60.6849 187.003C-51.1727 157.606 -35.39 131.989 -15.2955 111.151C-6.30754 101.185 3.76993 92.3672 14.6841 84.8286C17.2854 82.9645 19.9675 81.2202 22.721 79.6006C34.3097 72.5113 46.7138 66.799 59.6609 62.6028ZM60.2218 388.132C149.58 417.046 245.459 368.047 274.374 278.689C303.289 189.331 254.29 93.4514 164.932 64.5366C135.32 54.9546 104.992 53.9288 76.6215 60.0927C99.3246 56.428 123.214 57.9464 146.596 65.5127C225.423 91.0197 268.647 175.599 243.14 254.425C217.633 333.252 133.054 376.476 54.2275 350.969C-24.5991 325.462 -67.8231 240.883 -42.3162 162.056C-38.613 150.612 -33.6648 139.918 -27.6698 130.076C-36.7191 143.273 -44.0433 157.979 -49.2207 173.979C-78.1356 263.337 -29.1365 359.217 60.2218 388.132ZM241.237 253.81C216.07 331.585 132.619 374.233 54.8432 349.066C-22.9324 323.899 -65.5802 240.448 -40.4133 162.672C-35.8452 148.555 -29.3567 135.595 -21.3304 123.988C-26.3026 132.239 -30.4151 141.186 -33.5088 150.747C-55.2678 217.991 -18.395 290.142 48.8488 311.901C116.093 333.66 188.244 296.787 210.003 229.543C231.762 162.299 194.889 90.1484 127.645 68.3893C107.911 62.0036 87.7537 60.6677 68.5718 63.6673C93.421 58.1701 120.017 59.0142 145.981 67.4156C223.756 92.5825 266.404 176.034 241.237 253.81ZM49.4646 309.998C115.658 331.417 186.681 295.121 208.1 228.928C229.519 162.735 193.222 91.7112 127.029 70.2922C109.325 64.5632 91.274 62.9633 73.9196 64.9601C85.5339 64.6818 97.3924 66.3242 109.072 70.1035C164.733 88.1146 195.255 147.838 177.244 203.499C159.232 259.16 99.5093 289.682 43.8481 271.671C-11.8131 253.659 -42.3346 193.936 -24.3235 138.275C-22.279 131.957 -19.6971 125.963 -16.6446 120.326C-22.8875 129.716 -27.9638 140.107 -31.6059 151.363C-53.0249 217.556 -16.7284 288.579 49.4646 309.998ZM175.341 202.883C157.67 257.493 99.0741 287.439 44.4638 269.768C-10.1464 252.097 -40.0916 193.501 -22.4206 138.891C-18.591 127.056 -12.8393 116.379 -5.62262 107.095C-9.99188 113.627 -13.5414 120.866 -16.0808 128.714C-30.8644 174.401 -5.81211 223.422 39.8751 238.206C85.5623 252.99 134.584 227.937 149.367 182.25C164.151 136.563 139.099 87.5415 93.4114 72.7579C80.0576 68.4368 66.4189 67.519 53.4336 69.525C71.0729 65.5003 89.9923 66.0318 108.456 72.0064C163.066 89.6774 193.012 148.273 175.341 202.883ZM40.4909 236.303C85.1272 250.747 133.021 226.271 147.464 181.634C161.908 136.998 137.432 89.1043 92.7957 74.6607C80.4605 70.6693 67.8766 69.6501 55.8186 71.2071C63.573 71.0095 71.4925 72.0998 79.2919 74.6236C116.292 86.5962 136.581 126.297 124.608 163.297C112.636 200.297 72.9352 220.586 35.935 208.613C-1.06519 196.641 -21.354 156.94 -9.38136 119.94C-8.42773 116.993 -7.29818 114.152 -6.0081 111.425C-9.34716 116.941 -12.1065 122.928 -14.1779 129.33C-28.6215 173.966 -4.14545 221.86 40.4909 236.303ZM122.705 162.681C111.073 198.63 72.5001 218.343 36.5508 206.71C0.601463 195.078 -19.1111 156.505 -7.4785 120.556C-5.47686 114.37 -2.67757 108.665 0.768756 103.517C-0.82686 106.47 -2.17719 109.609 -3.24748 112.916C-12.7215 142.195 3.33315 173.61 32.6116 183.084C61.89 192.558 93.3051 176.503 102.779 147.225C112.253 117.946 96.1985 86.5312 66.9201 77.0571C59.0181 74.5002 50.9605 73.8028 43.2206 74.723C54.6133 72.2606 66.7882 72.6797 78.6762 76.5264C114.625 88.159 134.338 126.732 122.705 162.681ZM33.2273 181.181C61.4548 190.315 91.7423 174.836 100.876 146.609C110.01 118.381 94.5318 88.094 66.3043 78.96C57.3964 76.0775 48.2832 75.6462 39.6945 77.2931C44.4053 77.1281 49.2243 77.7662 53.9684 79.3013C75.8467 86.3808 87.8436 109.856 80.7641 131.734C73.6846 153.613 50.2096 165.609 28.3313 158.53C6.73698 151.542 -5.23076 128.582 1.26931 106.95C0.268246 109.057 -0.607134 111.253 -1.34462 113.532C-10.4786 141.759 4.9998 172.047 33.2273 181.181ZM18.3572 86.4851C17.3919 87.1795 16.4487 87.9066 15.5294 88.6652C10.0748 93.2761 5.79903 99.4174 3.43834 106.713C-3.30109 127.54 8.11952 149.888 28.947 156.627C49.7745 163.367 72.1218 151.946 78.8613 131.118C85.6007 110.291 74.1801 87.9436 53.3526 81.2042C41.0389 77.2197 28.1938 79.5829 18.3572 86.4851Z" fill="white" fill-opacity="0.28"/>
<circle cx="55.5" cy="210.5" r="6.5" fill="white"/>
<circle cx="248.5" cy="218.5" r="8.5" fill="white"/>
<circle cx="55" cy="429" r="10" fill="white"/>
</svg>
