<svg width="323" height="395" viewBox="0 0 323 395" fill="none" xmlns="http://www.w3.org/2000/svg">
<path fill-rule="evenodd" clip-rule="evenodd" d="M311.418 257.409C278.339 359.637 168.651 415.693 66.4226 382.614C-35.8053 349.535 -91.8614 239.847 -58.7821 137.619C-53.8229 122.293 -47.1418 108.005 -39.0223 94.899C-43.8186 103.853 -47.886 113.358 -51.1235 123.363C-80.3785 213.773 -30.8031 310.779 59.6061 340.034C150.015 369.289 247.022 319.714 276.277 229.305C305.532 138.896 255.957 41.8886 165.548 12.6337C143.821 5.60317 121.712 3.12536 100.255 4.67288C128.257 0.868169 157.529 3.13215 186.213 12.414C288.441 45.4933 344.497 155.181 311.418 257.409ZM59.6609 12.6028C99.2393 -1.69599 143.692 -3.44748 186.829 10.5111C290.108 43.9305 346.74 154.746 313.321 258.025C279.902 361.304 169.086 417.936 65.8069 384.517C-37.472 351.098 -94.1043 240.282 -60.6849 137.003C-51.1727 107.606 -35.39 81.9888 -15.2955 61.1513C-6.30754 51.1845 3.76993 42.3672 14.6841 34.8286C17.2854 32.9645 19.9675 31.2202 22.721 29.6006C34.3097 22.5113 46.7138 16.799 59.6609 12.6028ZM60.2218 338.132C149.58 367.046 245.459 318.047 274.374 228.689C303.289 139.331 254.29 43.4514 164.932 14.5366C135.32 4.95456 104.992 3.92883 76.6215 10.0927C99.3246 6.42798 123.214 7.94642 146.596 15.5127C225.423 41.0197 268.647 125.599 243.14 204.425C217.633 283.252 133.054 326.476 54.2275 300.969C-24.5991 275.462 -67.8231 190.883 -42.3162 112.056C-38.613 100.612 -33.6648 89.9184 -27.6698 80.0765C-36.7191 93.273 -44.0433 107.979 -49.2207 123.979C-78.1356 213.337 -29.1365 309.217 60.2218 338.132ZM241.237 203.81C216.07 281.585 132.619 324.233 54.8432 299.066C-22.9324 273.899 -65.5802 190.448 -40.4133 112.672C-35.8452 98.5547 -29.3567 85.5947 -21.3304 73.9876C-26.3026 82.2392 -30.4151 91.1861 -33.5088 100.747C-55.2678 167.991 -18.395 240.142 48.8488 261.901C116.093 283.66 188.244 246.787 210.003 179.543C231.762 112.299 194.889 40.1484 127.645 18.3893C107.911 12.0036 87.7537 10.6677 68.5718 13.6673C93.421 8.17008 120.017 9.01417 145.981 17.4156C223.756 42.5825 266.404 126.034 241.237 203.81ZM49.4646 259.998C115.658 281.417 186.681 245.121 208.1 178.928C229.519 112.735 193.222 41.7112 127.029 20.2922C109.325 14.5632 91.274 12.9633 73.9196 14.9601C85.5339 14.6818 97.3924 16.3242 109.072 20.1035C164.733 38.1146 195.255 97.8378 177.244 153.499C159.232 209.16 99.5093 239.682 43.8481 221.671C-11.8131 203.659 -42.3346 143.936 -24.3235 88.2751C-22.279 81.9569 -19.6971 75.9626 -16.6446 70.3264C-22.8875 79.7162 -27.9638 90.1072 -31.6059 101.363C-53.0249 167.556 -16.7284 238.579 49.4646 259.998ZM175.341 152.883C157.67 207.493 99.0741 237.439 44.4638 219.768C-10.1464 202.097 -40.0916 143.501 -22.4206 88.8909C-18.591 77.0558 -12.8393 66.3793 -5.62262 57.0947C-9.99188 63.6274 -13.5414 70.8662 -16.0808 78.7138C-30.8644 124.401 -5.81211 173.422 39.8751 188.206C85.5623 202.99 134.584 177.937 149.367 132.25C164.151 86.5629 139.099 37.5415 93.4114 22.7579C80.0576 18.4368 66.4189 17.519 53.4336 19.525C71.0729 15.5003 89.9923 16.0318 108.456 22.0064C163.066 39.6774 193.012 98.2729 175.341 152.883ZM40.4909 186.303C85.1272 200.747 133.021 176.271 147.464 131.634C161.908 86.998 137.432 39.1043 92.7957 24.6607C80.4605 20.6693 67.8766 19.6501 55.8186 21.2071C63.573 21.0095 71.4925 22.0998 79.2919 24.6236C116.292 36.5962 136.581 76.2966 124.608 113.297C112.636 150.297 72.9352 170.586 35.935 158.613C-1.06519 146.641 -21.354 106.94 -9.38136 69.9399C-8.42773 66.9929 -7.29818 64.1518 -6.0081 61.4246C-9.34716 66.9414 -12.1065 72.9281 -14.1779 79.3295C-28.6215 123.966 -4.14545 171.86 40.4909 186.303ZM122.705 112.681C111.073 148.63 72.5001 168.343 36.5508 156.71C0.601463 145.078 -19.1111 106.505 -7.4785 70.5557C-5.47686 64.3698 -2.67757 58.6648 0.768756 53.5174C-0.82686 56.4697 -2.17719 59.6086 -3.24748 62.9162C-12.7215 92.1946 3.33315 123.61 32.6116 133.084C61.89 142.558 93.3051 126.503 102.779 97.2247C112.253 67.9462 96.1985 36.5312 66.9201 27.0571C59.0181 24.5002 50.9605 23.8028 43.2206 24.723C54.6133 22.2606 66.7882 22.6797 78.6762 26.5264C114.625 38.159 134.338 76.7318 122.705 112.681ZM33.2273 131.181C61.4548 140.315 91.7423 124.836 100.876 96.6089C110.01 68.3814 94.5318 38.094 66.3043 28.96C57.3964 26.0775 48.2832 25.6462 39.6945 27.2931C44.4053 27.1281 49.2243 27.7662 53.9684 29.3013C75.8467 36.3808 87.8436 59.8558 80.7641 81.7342C73.6846 103.613 50.2096 115.609 28.3313 108.53C6.73698 101.542 -5.23076 78.5824 1.26931 56.9502C0.268246 59.0568 -0.607134 61.2528 -1.34462 63.5319C-10.4786 91.7594 4.9998 122.047 33.2273 131.181ZM18.3572 36.4851C17.3919 37.1795 16.4487 37.9066 15.5294 38.6652C10.0748 43.2761 5.79903 49.4174 3.43834 56.7128C-3.30109 77.5403 8.11952 99.8877 28.947 106.627C49.7745 113.367 72.1218 101.946 78.8613 81.1185C85.6007 60.291 74.1801 37.9436 53.3526 31.2042C41.0389 27.2197 28.1938 29.5829 18.3572 36.4851Z" fill="white" fill-opacity="0.28"/>
</svg>
